Coordinates
version=1
nRows=8
nColumns=36
inDegrees=yes

Units are S.I. units (second, meters, Newtons, ...)
If the header above contains a line with 'inDegrees', this indicates whether rotational values are in degrees (yes) or radians (no).

endheader
time	pelvis_tilt	pelvis_list	pelvis_rotation	pelvis_tx	pelvis_ty	pelvis_tz	hip_flexion_r	hip_adduction_r	hip_rotation_r	knee_angle_r	knee_angle_r_beta	ankle_angle_r	subtalar_angle_r	mtp_angle_r	hip_flexion_l	hip_adduction_l	hip_rotation_l	knee_angle_l	knee_angle_l_beta	ankle_angle_l	subtalar_angle_l	mtp_angle_l	lumbar_extension	lumbar_bending	lumbar_rotation	arm_flex_r	arm_add_r	arm_rot_r	elbow_flex_r	pro_sup_r	arm_flex_l	arm_add_l	arm_rot_l	elbow_flex_l	pro_sup_l
      3.70000000	      1.61810647	     -3.02167203	     -6.95374840	      1.83045228	      1.00317045	     -0.57294124	     -0.29471068	     -6.26914570	    -12.95889855	     13.98081022	      0.24401117	     23.77064363	      9.94730583	     -7.49999987	     -2.32983723	    -12.71869010	    -15.17997054	     17.28994942	      0.30176654	     23.54722514	     11.54233839	     -7.49999987	    -20.05170252	      1.13429928	      7.88067676	      6.62231099	    -19.67679294	     18.35460476	     33.04374441	     74.22765515	      3.66288750	    -14.05339481	     22.22745084	     47.55023400	     69.67939549
      3.71666670	      1.73961500	     -2.93733393	     -6.72096031	      1.83609607	      0.99938757	     -0.57433629	     -1.85299392	     -6.03129193	    -13.02141095	     11.65963898	      0.20349909	     23.06293856	      9.85938139	     -7.49999987	     -3.73272022	    -12.10038274	    -14.41926346	     15.07220896	      0.26305967	     22.94196667	     10.58186592	     -7.49999987	    -18.39855753	      1.28783833	      7.68431544	      5.49744018	    -20.04014615	     20.26853142	     33.59723093	     72.53465970	      2.81455398	    -14.35621640	     23.61915602	     48.57498886	     69.20787511
      3.73333330	      1.69259747	     -2.80284254	     -6.52844630	      1.84646760	      1.00344448	     -0.57191237	     -3.22902683	     -5.84830576	    -13.04121608	      9.46742438	      0.16523773	     22.40167603	      9.68185100	     -7.49999987	     -5.10029272	    -11.51613202	    -13.86282448	     12.75144815	      0.22255475	     22.28814699	     10.20989479	     -7.49999987	    -16.46236313	      1.42095004	      7.47110015	      4.32265501	    -19.94589337	     20.64879717	     33.67922083	     72.36640890	      1.79875155	    -14.37696494	     23.96806745	     48.92457325	     69.18281198
      3.75000000	      2.15892889	     -2.73489314	     -6.21674086	      1.85193851	      1.00994455	     -0.57145137	     -5.11063515	     -5.65411815	    -12.89095355	      7.38691667	      0.12892602	     21.72408451	      9.22538834	     -7.49999987	     -7.05348885	    -10.88110134	    -12.43237544	     10.25210628	      0.17893301	     21.37897687	      8.69509910	     -7.49999987	    -15.39402200	      1.52035199	      7.18984308	      3.32968361	    -19.98352508	     21.35687012	     33.96647130	     71.93187660	      1.05662362	    -14.55145365	     24.62395419	     49.65037930	     69.05201046
      3.76666670	      2.08610730	     -2.65104763	     -6.01409426	      1.85515938	      1.00273785	     -0.56955834	     -5.94998692	     -5.50114649	    -12.89350126	      6.15828703	      0.10748239	     21.49909643	      8.91981573	     -7.49999987	     -7.99809224	    -10.48902804	    -11.34212790	      8.65109775	      0.15099014	     20.96698455	      7.67525463	     -7.49999987	    -13.91345813	      1.56533496	      6.96072168	      2.44686662	    -20.34449847	     23.81846315	     34.75355449	     68.91990110	      0.28331066	    -15.03301554	     25.93054226	     50.69117310	     67.51692471
      3.78333330	      2.00695738	     -2.60845920	     -5.92420805	      1.85445076	      1.00688639	     -0.56851848	     -6.49181176	     -5.34152829	    -12.55169885	      5.30746365	      0.09263272	     21.23958753	      8.14840591	     -7.49999987	     -8.62662875	    -10.26232996	    -10.50151103	      7.45565163	      0.13012567	     20.76299441	      6.85008933	     -7.49999987	    -12.75572273	      1.56665484	      6.74385999	      2.03813386	    -20.15441851	     24.26031451	     34.88612804	     68.40697584	     -0.29653235	    -15.23169108	     26.28890713	     51.47761259	     67.32383520
      3.80000000	      2.02843705	     -2.52905316	     -5.76414164	      1.86144880	      1.00965270	     -0.56953566	     -7.15054235	     -5.28497327	    -12.39522394	      4.54685064	      0.07935751	     21.14049966	      7.65126819	     -7.49999987	     -9.41457046	     -9.96764260	     -9.65367870	      6.26771269	      0.10939222	     20.37078026	      5.94028544	     -7.49999987	    -11.68356377	      1.56207985	      6.46356772	      1.66782990	    -20.04607434	     24.99746563	     35.05577656	     67.64600124	     -0.92765355	    -15.43369300	     26.63402603	     52.20409507	     66.91313083
      3.81666670	      1.87900564	     -2.46780483	     -5.75893115	      1.86058807	      1.00157197	     -0.56933318	     -7.37425816	     -5.23392227	    -12.28211789	      4.08209291	      0.07124596	     21.16700044	      7.27815518	     -7.49999987	     -9.77206405	     -9.79562156	     -9.34818019	      5.58655048	      0.09750370	     20.39646484	      5.71946664	     -7.49999987	    -10.64283090	      1.53361685	      6.24918159	      1.42380659	    -20.07647403	     26.01388428	     35.72791073	     65.39544741	     -1.38272893	    -15.65909955	     27.19102722	     53.11012541	     65.28177415
